<svg xmlns="http://www.w3.org/2000/svg" xmlns:xlink="http://www.w3.org/1999/xlink" viewBox="0 0 66 81" fill="#fff" fill-rule="evenodd" stroke="#000" stroke-linecap="round" stroke-linejoin="round"><use xlink:href="#A" x=".5" y=".5"/><symbol id="A" overflow="visible"><path d="M44.878 16.918H20.122c-1.695 0-3.101 1.38-3.101 3.082v60h30.958V20c0-1.703-1.388-3.082-3.101-3.082zm-1.551 56.918H21.673v-3.083h21.673v3.083zm0-6.165H21.673v-3.082h21.673v3.082zm0-38.441H21.673v-3.082h21.673v3.082zM61.899 0H37.143c-1.695 0-3.101 1.38-3.101 3.082v10.771h10.836c3.408 0 6.185 2.778 6.185 6.147v27.688h9.286v3.082h-9.286v3.082h9.286v3.082h-9.286v6.147H65V3.065C65 1.38 63.612 0 61.899 0zm-1.551 12.294H38.694V9.212h21.673v3.082zM13.92 56.918H4.634v-3.083h9.286v-3.082H4.634V47.67h9.286V20c0-3.387 2.795-6.147 6.185-6.147H30.94V3.082C30.94 1.398 29.552 0 27.839 0H3.101C1.406 0 0 1.38 0 3.082v60h13.938v-6.165zM4.634 9.229h21.673v3.082H4.634V9.229z" fill="#40CFD4" stroke="none"/></symbol></svg>