<svg xmlns="http://www.w3.org/2000/svg" xmlns:xlink="http://www.w3.org/1999/xlink" viewBox="0 0 76 26" fill="#fff" fill-rule="evenodd" stroke="#000" stroke-linecap="round" stroke-linejoin="round"><use xlink:href="#L" x=".5" y=".5"/><defs><linearGradient id="A" x1="-218.78%" y1="-43.47%" x2="105.55%" y2="69.32%"><stop offset="0%" stop-color="#927b60"/><stop offset="49.7%" stop-color="#603913"/><stop offset="62.4%" stop-color="#937f66"/><stop offset="74.3%" stop-color="#67411c"/><stop offset="88.8%" stop-color="#603913"/></linearGradient><linearGradient id="B" x1="54.93%" y1="98.40%" x2="-22.50%" y2="-78.21%"><stop offset="0%" stop-color="#ca8859"/><stop offset="2.2%" stop-color="#c78859"/><stop offset="22.7%" stop-color="#b08460"/><stop offset="44.6%" stop-color="#9f8163"/><stop offset="68.7%" stop-color="#967f65"/><stop offset="99.4%" stop-color="#937f66"/></linearGradient><linearGradient id="C" x1="51.94%" y1="110.64%" x2="42.26%" y2="-3.64%"><stop offset="0%" stop-color="#927b60"/><stop offset="100%" stop-color="#3c2415"/></linearGradient><linearGradient id="D" x1="148.94%" y1="134.58%" x2="-30.25%" y2="-25.38%"><stop offset="14.7%" stop-color="#927b60"/><stop offset="58.9%" stop-color="#603913"/><stop offset="100%" stop-color="#937f66"/></linearGradient><linearGradient id="E" x1="91.33%" y1="151.87%" x2="4.90%" y2="-79.13%"><stop offset="14.7%" stop-color="#927b60"/><stop offset="58.9%" stop-color="#603913"/><stop offset="100%" stop-color="#937f66"/></linearGradient><linearGradient id="F" x1="-3509.17%" y1="50.00%" x2="-3500.11%" y2="50.00%"><stop offset="0%" stop-color="#927b60"/><stop offset="100%" stop-color="#3c2415"/></linearGradient><linearGradient id="G" x1="0.00%" y1="50.00%" x2="100.00%" y2="50.00%"><stop offset="0%" stop-color="#927b60"/><stop offset="100%" stop-color="#3c2415"/></linearGradient><linearGradient id="H" x1="-0.00%" y1="50.00%" x2="100.00%" y2="50.00%"><stop offset="0%" stop-color="#927b60"/><stop offset="100%" stop-color="#3c2415"/></linearGradient><linearGradient id="I" x1="-0.00%" y1="50.00%" x2="100.00%" y2="50.00%"><stop offset="0%" stop-color="#603913"/><stop offset="100%" stop-color="#3c2415"/></linearGradient><path id="J" d="M67.134 2.529c.052.052.082.1.082.136l-.147 1.527-.206.932-.08-.018-.004.002c-.069.037-1.074.551-1.53-.359-.471-.943-.235-2.096.516-2.494.487-.258 1.142.046 1.368.274z"/><path id="K" d="M73.938 8.68l-.002-.001-1.586-.595-1.583-.723c-.717-.432-1.938-1.867-1.938-1.867l1.335-.353s.765-.316 1.152-.211c.152.041.349.094.538.176v-.001l-4.011-2.851-.71.274c.052.052.082.1.082.136l-.147 1.527-.206.932-.749 3.4c.465.046 1.425.313 2.295.547h.001l1.48.357c.786.118 2.438.236 3.028 0 .553-.222.587-.511 1.043-.612l-.022-.135z"/></defs><symbol id="L" overflow="visible"><g stroke="none" fill-rule="nonzero"><path d="M75 8.209c0 .314-.394.511-.944.59l-.097.017-.022-.135s-.118-.275 0-.59c.115-.304.683-.566.718-.582.197.306.344.577.344.701z" fill="#795a59"/><path d="M72.803 7.972l-.436-.272-3.537-2.205s1.221 1.435 1.938 1.867c.352.212.979.482 1.583.723l1.586.595h.001l-1.135-.708z" fill="url(#A)"/><path d="M72.458 5.773c.07.559-.247.744-.604.667 0 0-.039-.347-.184-.677-.02-.121-.078-.222-.159-.281-.027-.037-.057-.072-.089-.104-.354-.354-.59-.275-1.258-.235 0 0 .765-.316 1.152-.211.152.041.349.094.538.176.292.127.561.325.604.665z" fill="#c38156"/><path d="M72.366 7.7l-3.537-2.205 1.335-.353c.124.537.585.868.994 1.062a.28.28 0 0 0 .168.073c.295.118.528.163.528.163s-.261.531.512 1.261z" fill="#58330e"/><g fill="#6c5342"><path d="M71.854 5.106v.001c-.189-.082-.386-.135-.538-.176-.387-.106-1.152.211-1.152.211l-1.334.353s-1.546.811-.421 3.575l-2.295-.547.749-3.4.206-.932.147-1.527c0-.036-.029-.084-.082-.136l.71-.274c1 .913 3.918 2.791 4.009 2.85z"/><path d="M65.781.579l6.071 4.526-4.009-2.85c-.587-.537-1.444-1.206-2.062-1.676z"/></g><path d="M71.671 5.763c.145.329.184.677.184.677s-.234-.044-.528-.163c.204.001.353-.19.353-.425 0-.03-.003-.059-.008-.089z" fill="#653"/><path d="M71.671 5.763c.005.028.008.058.008.089 0 .235-.149.427-.333.427l-.187-.074a.47.47 0 0 1-.145-.353c0-.074.015-.147.045-.214l.288.214-.001-.427c.06 0 .117.021.166.058a1.42 1.42 0 0 1 .159.281z" fill="#000"/><path d="M71.511 5.482c.081.059.14.16.159.281-.043-.099-.096-.195-.159-.281z" fill="#6c5342"/><path d="M71.422 5.378c.032.032.062.067.089.104-.049-.037-.105-.058-.166-.058-.067 0-.129.025-.181.07-.103.059-.106.144-.106.144a.52.52 0 0 0-.045.214.47.47 0 0 0 .145.353c-.409-.194-.87-.525-.994-1.062.668-.04.904-.119 1.258.235z" fill="#653"/><path d="M71.345 5.424l.001.427-.288-.214a.39.39 0 0 1 .104-.142c.103-.058.183-.071.183-.071z"/><g fill="#6c5342"><path d="M71.346 5.424s-.08.013-.181.07c.052-.044.114-.07.181-.07zm-.187.78l.168.073c-.062-.004-.12-.03-.168-.073zm.004-.709a.39.39 0 0 0-.104.142s.003-.085.104-.142zM57.81 13.578l.005.015-.005-.015z"/><use xlink:href="#J"/></g><use xlink:href="#K" fill="url(#B)"/><use xlink:href="#K" fill="url(#C)" opacity=".69"/><use xlink:href="#J" fill="#67411c"/><g fill="#6c5342"><path d="M66.863 5.124l-.748 3.4s-.173-1.231-.138-2.084c.034-.817.744-1.293.802-1.332l.084.016zM65.683.505l-.634-.473.634.473z"/><path d="M65.049.031h-.001l-.022-.016.022.016z"/></g><path d="M61.891 18.282l-.177.158h-.423l-.082-.041z" fill="#000"/><path d="M61.115 17.999c-.211.035-.704-.07-.916-.387s-.423-.951-.494-1.409.235-.88.235-1.424c0-.536.421-1.914.434-1.956l-.535.702c-.018.044-.039.08-.063.106-.051.054-.013-.002.063-.106l.342-.738-.429-.026-.721.237-.019.004-1.062.006c.023.366-.047.564-.142.322l-.232.074-.148.058-.047.258-.09.1c-.006.199-.06.236-.058.385.015.031-.016.11-.021.137-.009.046-.12-.126-.121-.216-.078-.177.078.385.078.385l.423.951s.458.352.563.74.211.74.141.881-.07.211.07.423l.227.564c.022.017.14.017.263.052.078.022.195.029.274.053l1.159.382.284-.049.635-.11.682-.117c0 0-.564-.317-.775-.283z" fill="url(#D)"/><path d="M60.939 18.774l-.649-.218.284-.049z" fill="#000"/><path d="M59.841 13.525c-.018.044-.039.08-.063.106-.051.055-.013-.002.063-.106z" fill="#6c5342"/><g fill="#000"><path d="M62.419 18.282c-.159-.106-.291-.106-.384-.08s-.145.08-.145.08l-.177.158h-.422l-.082-.041-.635.11.365.266.352.141s.353.036.458 0 .247-.282.247-.282.176-.141.387-.035c.205.103.443.303.458.316-.005-.02-.113-.427-.422-.633z"/><path d="M59.942 18.44l-.001.001-.261.222-.008.007h-.032-.355l-.368.125-.02.006-.009-.002-.625-.129s-.176.246-.282.262l-.387.09.387.247h.564.417l.499-.141h.482l.399-.196.599-.156-.649-.218-.349-.117z"/></g><g fill="#6c5342"><path d="M57.83 13.637l.162.442-.013.007-.149-.449z"/><path d="M57.829 13.637l-.011-.034.011.034zm-.014-.044l-.005-.015zm-.237 1.325c.015.031.02.061.015.088-.009.046-.014.003-.015-.088zm-9.299.318c-.02.027-.039.046-.056.052s.005-.014.056-.052z"/></g><path d="M43.503 18.337l.07.296c-.017-.015-.292-.243-.599-.296-.083-.015-.137-.001-.172.027v-.37c.255.044.652.143.7.343z" fill="#000"/><path d="M38.358 15.632l.048.275.023-.021-.071-.254zm-.355.254c-.009.026.015.06.058.084-.027-.063-.051-.107-.058-.084z" fill="#6c5342"/><path d="M42.801 17.994l-.215-.029-.81-.317c-.352-.141-.528.07-.881 0s-1.831-1.656-1.831-1.656l-.595.28-.064-.365c-.132.115-.269.105-.345.063l.101.24-.264.126h-.6l-.312-.134-1.249-.317s1.249 1.479 1.918 1.748a10.35 10.35 0 0 1 1.24.621c.34.191 1.578.186 1.578.186.352.053.705.089 1.021 0s.778-.125.881.027c.096.142.388-.074.423-.101l.004-.373h-.001z" fill="url(#E)"/><g fill="#000"><path d="M42.799 18.367c-.092.08-.036.266-.036.266s-.423-.035-.704 0-.353.159-.528.115-.563.114-.916 0-.845.114-.986 0l-.423-.308-.31-.186c.34.191 1.578.186 1.578.186.352.053.705.089 1.021 0s.778-.125.881.027c.096.142.388-.074.423-.101zm-7.398.338c.106.387-.177.395-.177.395s-.035-.43-.246-.43-.035.262-.035.262h-.599l-.352.337-.276-.061.011-.052a.3.3 0 0 0 .194-.028c.423-.196.458-.463.458-.463v-.224l.334-.112a1.97 1.97 0 0 0 .23.113s.352-.124.458.264z"/><path d="M34.776 18.337l-.396.103v.224s-.035.267-.458.462c-.073.034-.137.041-.194.028-.222-.047-.328-.378-.359-.467l1.408-.35z"/><path d="M33.728 19.155l-.011.052-.358-.08-.916.141-.509-.225.121.053.311-.161c.171.096.394.042.569.03.193-.013.386-.191.418-.275l.016-.004c.031.09.137.421.359.468z"/></g><path d="M33.369 18.687l-.016.004c.003-.008.005-.015.005-.022s.003-.002.011.018z" fill="#6c5342"/><path d="M59.942 18.44l-.001.001.349.116z" fill="url(#F)"/><path d="M29.73 14.779c-.183.088.53 1.866.607 2.096.25.741.583 1.844 1.334 2.233.929.481 2.172-.439 3.042-.78-.749-.372-1.549-.179-2.069-.951-.114-.168-.478-.848-.295-1.052.144-.16 1.061-.291 1.264-.281.014.201.964.319 1.168.291 0 .069.002-.068 0 0 .376-.209.532-.45.955-.45-.017.082 1.552.353 1.561.45.204-.067.619.028.983-.047.09-.018.224-.102.364-.158.11-.045.359-.294.459-.362.203-.139 4.299-.566 4.68-.561.303.004 1.299-.143 1.494-.239-.024.071.318.103.439.055-.006.051.811-.17 1.171-.245.035-.007.255.068.237.139.184-.073.557-.24.522-.139.254-.164.592-.023.87-.135.313-.126.337.098.675.036-.013.088.478-.284.464-.195.245-.045.044.094.269 0 .206-.195.584-.287.601-.253.521-.069.886-.222.951.209.346-.431 1.69.123 1.994.337.528.372.951 1.318 1.092 1.697s.81 1.206 1.057 1.594.81.775 1.056.951.916 0 .916 0l.387-.09c.106-.016.281-.262.281-.262l.625.129.028-.004.368-.125h.355l.041-.007.261-.222s-.469-.125-.81-.265-.537-.105-.537-.105c-.246.022-.358.167-.649.035-.387-.176-.634-.493-.771-.81-.348-.807-.542-2.863.118-3.474.316-.292.696-.305.659-.812.195.222.844-.104 1.006-.248.034.068.763-.077.796 0 .221-.483 1.921-1.453 2.242-.679.105.254.407-.909.493-.964.074-.046.069.447.141.4.282-.184.24-.476.489-.657.186-.135.154.39.322.257.079-.063.365-.784.44-.846.114-.094-.051.387.053.296.13-.113.526-.797.641-.905.085-.08-.119.524-.042.447.226-.226.741-1.088.944-1.226.121-.082-.404.646-.31.592.189-.107.948-.952.948-.952s-.173-1.232-.137-2.084c.034-.817.744-1.293.802-1.332-.069.037-1.074.551-1.529-.359-.472-.943-.235-2.096.516-2.494.487-.258 1.142.046 1.368.274l.8-.345 3.918 2.921c.293.129.563.328.606.668.07.559-.247.744-.604.667 0 0-.261.531.512 1.26l.436.272 1.136.708s-.118-.275 0-.59c.115-.304.683-.566.718-.582l-.875-1.266c-.275-.393-.472-.59-.511-.826s0-.55-.275-.825-3.303-3.46-4.954-4.089C66.988.1 66.014-.077 65.049.031l.634.473-.635-.473a5.29 5.29 0 0 0-1.647.47c-1.534.708-3.185 1.416-3.972 1.534s-1.848.236-2.516.472-1.703.404-2.084.472-6.396-1.359-11.503-.725c-2.741.34-5.601.88-8.102 1.831s-4.051 2.466-5.741 4.016-3.98 3.875-6.622 5.566-6.327 3.545-9.194 4.773-3.769 1.814-6.305 2.976S0 24.516 0 24.516l3.962-.286 13.068-4.271 7.003-2.489 5.697-2.692z" fill="url(#G)"/><path d="M32.055 15.886l.099.276-.099.041z" fill="#6c5342"/></g><path d="M62.842 18.916l-.001-.001" fill="none" stroke-width=".032"/><g stroke="none" fill-rule="nonzero"><path d="M.028 24.517c.789-.105.948.184 1.73 0 .728-.172.6-.051 1.301-.221-.214.693.686.149.903-.065.235-.232.594-.097.468.081l1.453-1.014c.006.302-.341.569-.45.791.314.053.982-.42 1.287-.581-.134.19-.322.371-.403.579.46.054 1.638-.7 2.006-.957-.19.184-.344.384-.443.618.266.132 1.205-.639 1.43-.86.109.274-.125.399-.122.654.483.06.84-.36 1.189-.619.014-.016.013-.017-.003-.002-.023.08.009.165-.006.241.515.031 1.348-.252 1.709-.629-.144.032-.262.122-.318.248.336-.079.641-.38.921-.593.366-.278.839-.478 1.145-.819-.129.377-.482.69-.664 1.047.505-.413 1.198-.723 1.646-1.143a5.62 5.62 0 0 0-.39.832c.284.015.658-.502.882-.678.287-.225.578-.417.807-.694-.103.226-.391.703-.042.742.206.023.819-.509.998-.628.245-.163.438-.374.681-.535-.272.472-.963 1.331-.963 1.331s1.108-.472 1.451-.766c.334-.286.744-.511 1.069-.784-.095.227-.174.466-.199.709.627-.148 1.145-.937 1.681-1.291-.175.308-.038.808-.282 1.08.647-.242 1.086-1.302 1.532-1.933-.121.366-.105.827-.287 1.156.611-.172.885-.92 1.363-1.313l-.274.928s.893-1.165 1.307-1.487c-.132.236.056.708.056.708l1.182-1.459c-.218.279-.335 1.253-.335 1.253s1.018-1.812 1.937-2.19c-.103.37-.505.678-.573.997.591-.415 1.383-1.039 1.741-1.672-.196.335-.573.709-.525 1.13.758.03 1.52-1.275 1.81-1.872-.027.248-.138.491-.198.737.254-.158.659-.591.659-.841 0-.211.506-1.424 0-1.091s-3.502 2.075-5.653 3.271-9.703 3.389-12.825 4.486-6.29 1.35-7.51 1.688S.028 24.517.028 24.517z" fill="url(#H)"/><path d="M52.088 14.307c.021.012-.424-.062-.71.154.003-.055-.013-.121-.005-.181l-.462.436c.056-.106.045-.219.071-.32-.176.153-.377.313-.577.445.042-.106.007-.25.029-.361-.211.078-.33.339-.535.457.005-.076-.022-.17-.014-.244-.266.127-.463.483-.791.571.035-.14.082-.298.072-.447-.228.257-.608.52-.961.582.132-.136.246-.339.244-.538-.362.156-.684.619-1.13.54.076-.156.164-.322.159-.497-.323.151-.595.479-.948.582.098-.169.195-.348.235-.54-.36.06-.579.511-.951.537l.266-.451c-.514.013-.86.592-1.459.492.083-.091.227-.195.341-.271a2.69 2.69 0 0 1-1.185.357 1.02 1.02 0 0 1 .046-.284c.017.002.103.006.117.003-.62.289-1.331.528-2.059.49.084-.19.255-.332.405-.484-.396.138-.742.436-1.036.731.005-.124-.057-.239-.055-.365-.217.104-.315.34-.503.489.027-.115-.02-.248-.003-.36-.2.052-.374.224-.536.361.006-.069-.019-.156-.013-.226-.12.065-.246.203-.375.289-.069-.104-.117-.245-.135-.384-.178.201-.272.555-.487.712 0-.094-.05-.178-.047-.278-.256.215-.476.465-.756.646.02-.124-.052-.251-.057-.361-.216.135-.293.448-.543.541-.065-.14-.035-.309-.002-.459-.184.116-.331.363-.537.415a1.13 1.13 0 0 0-.057-.453c-.24.059-.487.275-.745.283.03-.109.002-.26.027-.369-.17.152-.315.399-.576.369.032-.201.104-.396.071-.621-.275.113-.53.588-.864.537.13-.195.291-.392.369-.612-.202.228-.48.529-.791.569.11-.125.177-.287.146-.453-.214.194-.422.469-.703.581.041-.147.145-.298.201-.454-.294.126-.542.341-.867.421.032-.041.064-.03.104-.053.039-.209.257-.284.416-.407-.286-.032-.508.134-.785.153.054-.068.086-.167.15-.237-.188.018-.375.099-.567.155-.024-.136-.048-.205.115-.315-.148.097-.31.162-.497.147.02-.159-.007-.331-.091-.373l5.07-.248c2.187-.216 5.73-1.072 8.472-1.425s5.4-.943 6.033-.69.252.717.252.717z" fill="url(#I)"/><g fill="#3c2415"><path d="M57.024 15.404l.22-.881c.122.109.19.305.279.446.046-.292-.07-.574-.028-.868.169.065.209.31.278.488.008-.205-.064-.407-.024-.616.205.163.328.452.38.709.189-.237.104-.688.128-1.005.09.143.098.335.199.499.282-.172.172-.636.373-.878.021.316-.018.647.048.951a1.52 1.52 0 0 0 .34-1.027c-.021.228.003.579.095.784.273-.236.359-.844.497-1.098-.062.244-.062.511-.12.761.183-.269.63-.48.668-.84 0 0 .196-.802.583-.928s-1.519-.004-1.958.357-1.612.818-1.911 1.37-.047 1.775-.047 1.775z"/><path d="M74.658 7.507l-.877-1.265c-.276-.393-.472-.59-.511-.826s0-.55-.275-.825-3.303-3.46-4.954-4.089C66.987.1 66.014-.077 65.049.031l.634.473-.635-.473a5.29 5.29 0 0 0-1.647.47c-1.534.708-3.185 1.416-3.971 1.533s-1.848.236-2.516.472-1.703.404-2.084.472-6.396-1.359-11.503-.725c-2.741.34-5.601.88-8.102 1.831s-4.051 2.466-5.741 4.016-3.98 3.875-6.622 5.566-6.327 3.545-9.194 4.773-3.769 1.814-6.305 2.976S0 24.516 0 24.516l.033-.002c.007 0 .019-.001.031-.002l.258-.019c.551-.011.763.182 1.436.023.728-.172.6-.051 1.301-.221-.214.693.686.149.903-.065l.355-.116c.112.023.179.104.113.197l.665-.451.663-.216c-.109.163-.259.311-.324.444.314.053.982-.42 1.287-.581-.134.19-.322.371-.403.579.46.054 1.638-.7 2.006-.957-.19.184-.344.383-.443.618.266.132 1.205-.639 1.43-.86.109.275-.125.399-.122.654.481.06.837-.356 1.185-.615-.02.078.009.161-.005.236.397.024.981-.139 1.394-.387.333-.073.638-.374.918-.586.366-.278.839-.478 1.145-.819-.129.377-.482.69-.664 1.047.506-.413 1.198-.723 1.646-1.143a5.63 5.63 0 0 0-.39.832c.284.015.658-.502.882-.678.287-.225.578-.417.807-.694-.103.226-.391.703-.042.742.207.023.819-.509.998-.628.245-.163.438-.374.681-.536-.273.472-.963 1.331-.963 1.331s1.108-.472 1.451-.766c.334-.286.744-.511 1.069-.784-.095.227-.174.466-.199.709.627-.148 1.145-.937 1.681-1.291-.175.308-.038.808-.282 1.08.646-.242 1.086-1.302 1.532-1.933-.121.366-.105.827-.287 1.156.611-.172.885-.92 1.362-1.313l-.273.928s.893-1.165 1.307-1.487c-.131.236.056.708.056.708s.834-1.112 1.182-1.459c-.218.279-.335 1.253-.335 1.253s1.018-1.812 1.937-2.19c-.103.37-.505.678-.573.997.503-.353 1.152-.859 1.554-1.393-.182.26-.374.543-.338.851.714.029 1.431-1.127 1.755-1.76l.042-.02c-.04.217-.131.43-.184.645.151-.094.354-.284.495-.476.122.543.546 1.607.604 1.781.25.741.583 1.844 1.334 2.233.221.114.46.149.707.131l.065.028.916-.141.358.08.276.061.352-.337h.599s-.176-.262.035-.262.246.43.246.43.282-.008.177-.395-.458-.264-.458-.264-.105-.043-.2-.095l.033-.008-.033.008-.03-.017c-.749-.372-1.548-.179-2.069-.951-.114-.168-.478-.848-.295-1.052.186.016.349-.05.497-.146-.163.11-.139.179-.115.315.192-.056.38-.137.567-.155-.064.069-.096.169-.15.237.276-.018.499-.184.785-.153-.159.124-.377.199-.416.407-.041.022-.072.011-.104.053.325-.08.573-.295.867-.421-.056.157-.16.308-.201.454.281-.111.489-.386.703-.581 0 .03 0 .021.001.008.028.164-.038.322-.147.446.311-.04.589-.341.791-.569-.077.22-.239.416-.369.612.334.051.588-.424.864-.537.033.225-.039.42-.07.621.236.027.378-.173.528-.324l.037.038c-.005.095.006.203-.017.286.082-.003.163-.026.243-.059.349.34.731.665 1.012.777.449.18.93.442 1.24.621a11.04 11.04 0 0 1 .31.186 4.22 4.22 0 0 1 .423.308c.141.114.634-.115.987 0s.74-.044.916 0 .247-.08.528-.115.704 0 .704 0-.056-.187.036-.266c.038-.032.093-.045.175-.03.307.053.582.281.599.296-.001-.005-.009-.041-.07-.296-.047-.2-.445-.299-.7-.343h-.001l-.215-.029-.81-.317c-.353-.141-.528.07-.881 0-.252-.051-1.079-.875-1.531-1.341.087-.152.162-.321.266-.438.018.14.066.28.135.384.129-.085.255-.224.375-.289-.006.07.019.158.013.226.161-.137.335-.309.536-.361-.017.112.03.245.003.36.188-.149.286-.385.503-.489-.003.126.06.241.055.365.292-.293.636-.59 1.03-.728l.004-.001c-.15.151-.319.293-.403.482.676.035 1.337-.168 1.924-.429a1.13 1.13 0 0 0-.027.219 2.69 2.69 0 0 0 1.185-.357c-.114.076-.258.179-.341.271.599.1.945-.479 1.459-.492-.077.157-.18.301-.265.451.372-.026.591-.478.951-.537-.04.191-.136.371-.235.54.353-.103.625-.431.948-.582.005.175-.083.341-.159.496.446.079.768-.383 1.13-.54.001.199-.113.403-.244.539.353-.062.733-.325.96-.582.01.15-.037.307-.072.447.328-.088.525-.444.791-.571-.008.075.019.169.014.244.205-.119.324-.379.535-.457-.023.111.013.255-.029.361.199-.131.4-.292.576-.445-.026.101-.016.214-.071.32l.462-.436c-.008.06.009.127.005.181a.64.64 0 0 1 .092-.057l.008.038a.35.35 0 0 1 .099-.083c.256-.086.527-.042.511-.052.531.043 1.183.332 1.384.473.528.372.951 1.318 1.092 1.697s.81 1.206 1.057 1.594.81.775 1.056.951.916 0 .916 0l.387.247h.564.416l.499-.141h.482l.399-.196.599-.156.352.141s.352.036.458 0 .247-.282.247-.282.176-.141.387-.035c.205.103.443.303.458.316-.005-.02-.113-.427-.422-.633-.159-.106-.291-.106-.384-.08s-.145.08-.145.08-.564-.317-.775-.282-.704-.07-.915-.387-.423-.951-.494-1.409.235-.88.235-1.424c0-.536.421-1.914.434-1.956l-.022.029.004-.022c0 0 .165-.674.491-.883.49-.203.989-.249 1.149.135.105.254.407-.909.493-.964.074-.046.069.447.141.4.282-.184.24-.476.489-.658.186-.135.154.39.322.257.079-.063.365-.784.44-.846.114-.094-.051.387.053.296.13-.113.526-.797.641-.905.085-.08-.119.524-.042.447.226-.226.741-1.088.944-1.226.121-.082-.404.646-.31.592.189-.107.948-.952.948-.952.465.046 1.425.313 2.295.547l.001.001 1.48.357c.786.118 2.438.236 3.028 0 .553-.222.587-.511 1.044-.612a1.58 1.58 0 0 1 .097-.017c.55-.079.943-.275.943-.59.001-.123-.146-.394-.341-.701zm-17.484 9.788c-.252-.585-.424-1.828-.247-2.699a5.66 5.66 0 0 0 .096.807l.193-.787.377.847s.458.353.563.74.211.74.141.881-.07.211.07.423l.226.564c-.246.022-.358.167-.649.035-.387-.176-.634-.493-.771-.81zm1.722 1.505l-.009-.002.028-.004-.02.006zm.775-.131h-.032l.041-.007-.008.007zm.244-.235c-.101-.027-.491-.137-.785-.258l.785.258zm-.075-4.908l.019-.044.042-.038-.061.082zm7.293-10.997l.686-.296.024.022-.71.274zm5.669 5.444l1.135.708h0l-1.134-.708z" opacity=".66"/><path d="M65.027.015l.022.016h.001l-.022-.016zm-16.748 15.22c-.051.038-.075.058-.056.052s.037-.024.056-.052z" opacity=".66"/></g></g></symbol></svg>